<svg id="Layer_1" data-name="Layer 1" xmlns="http://www.w3.org/2000/svg" viewBox="0 0 1887 1503"><defs><style>.cls-1{fill:#877eff;}</style></defs><rect class="cls-1" width="1887" height="1503" rx="267.7"/><polygon points="595.63 501.5 818.4 81.07 1041.17 501.5 595.63 501.5"/><path d="M818.4,82.14,1040.34,501H596.46L818.4,82.14m0-2.14L594.79,502H1042L818.4,80Z"/><rect x="717.55" y="502.61" width="200.76" height="859.97"/><path d="M917.81,503.11v859H718.05v-859H917.81m1-1H717.05v861H918.81v-861Z"/><polygon points="887.07 1362.98 873.94 1349.85 873.94 1175.35 887.07 1162.22 1546.37 1162.22 1559.5 1175.35 1559.5 1349.85 1546.37 1362.98 887.07 1362.98"/><path d="M1546.16,1162.72l4.58,4.58,8.26,8.26v174.08l-12.84,12.84H887.28l-8.26-8.26-4.58-4.58V1175.56l12.84-12.84h658.88m.42-1H886.86l-13.42,13.42v174.92l13.42,13.42h659.72l13.42-13.42V1175.14l-13.42-13.42Z"/></svg>